<svg xmlns="http://www.w3.org/2000/svg" viewBox="0 0 719.3 719.3"><defs><style>.cls-1,.cls-2,.cls-3,.cls-4,.cls-6{fill:none;}.cls-1,.cls-3{stroke:#335095;}.cls-1,.cls-2,.cls-3,.cls-4{stroke-miterlimit:10;}.cls-1,.cls-4{stroke-width:7.54px;}.cls-2,.cls-4,.cls-6{stroke:#39499b;}.cls-2,.cls-3{stroke-linecap:round;}.cls-2,.cls-3,.cls-6{stroke-width:7.54px;}.cls-5{fill:#39499b;}.cls-6{stroke-linejoin:round;}.cls-7{font-size:43.27px;}.cls-10,.cls-11,.cls-12,.cls-13,.cls-14,.cls-15,.cls-16,.cls-17,.cls-18,.cls-7,.cls-8,.cls-9{fill:#f48228;font-family:Futura-Medium, Futura;font-weight:500;}.cls-8{font-size:43.27px;}.cls-9{font-size:43.27px;}.cls-10{font-size:43.27px;}.cls-11{font-size:43.27px;}.cls-12{font-size:43.27px;}.cls-13{font-size:43.27px;}.cls-14{font-size:43.27px;}.cls-15{font-size:43.27px;}.cls-16{font-size:43.27px;}.cls-17{font-size:43.27px;}.cls-18{font-size:43.27px;}</style></defs><g id="Capa_2" data-name="Capa 2"><g id="reflex"><line class="cls-1" x1="455.66" y1="470.98" x2="473.66" y2="470.98"/><line class="cls-2" x1="246.92" y1="459.75" x2="277.86" y2="437.51"/></g><g id="ryas_tronco" data-name="ryas tronco"><line class="cls-2" x1="341.96" y1="426.85" x2="452.66" y2="426.85"/><line class="cls-2" x1="358.4" y1="470.98" x2="429" y2="470.98"/><line class="cls-2" x1="379.3" y1="448.9" x2="397.3" y2="448.9"/><line class="cls-2" x1="393.71" y1="497.63" x2="464.65" y2="497.63"/><line class="cls-3" x1="346.88" y1="497.63" x2="362.37" y2="497.63"/></g><g id="tronco"><path class="cls-4" d="M451.82,516.74c31.32,0,56.72-24.42,56.72-54.56s-25.4-54.56-56.72-54.56l-177.69,2.24"/><line class="cls-4" x1="457.1" y1="516.51" x2="282.72" y2="523.51"/><path class="cls-4" d="M336.36,466.57a56.73,56.73,0,1,1-56.73-56.71,56.73,56.73,0,0,1,56.73,56.71"/></g><g id="pajaro"><path class="cls-5" d="M299.88,159.81c1.91,10.14,9.18,21.75,12.78,32.74s.23,18-1.13,25.82.88,18.6,3.81,21.56,7.49,4.51,13.28,4.26,14.81,1.48,19.77,3.29,23.36,16,23.36,16l21.13,23L414,308.25l22.37,27.61s16.16,20.89,18.82,25.32S465,377.82,468.45,384a42.1,42.1,0,0,1,5.72,17.61,47.6,47.6,0,0,0,6.3,19.1s5.18,9.1,8.1,11.66c3.13,3.63,8.93,7.18,9.21,8.47-1.45,1.26-7.93.2-13.85-.47-5.5-.62-8.52-1.93-11.7.72-1.9,1.62,4.25,19.49,6.59,23.07s12.36,18,12.36,18,5.08,6.75,9.8,13.77,6.17,7.21,11.47,14.1,14.06,14.75,14.06,14.75-2.86,1.38-16.28-3.88-33-21.22-33-21.22c-7-5.32-23.17-25.89-23.17-25.89l-15.31-19.56-12.93-16.1-12.91-13.77s-12.19-10.58-16.37-12.59-12.67-5.74-20.12-5.79-15.37.38-15.37.38l-20.24.21-23.21.25-26.27.44c-4-3.7-1-11.58-1-11.58,1.22-.89,14.92.15,16.65-1.51s-5.08-14.84-7.17-19.66-11.74-13.78-11.74-13.78c-3.48-3.42-10.61-16.13-10.61-16.13a89.35,89.35,0,0,1-7.43-14.89c-2.39-6.95-3.4-22-3.4-22l.92-19.44L269.43,269l2.4-19.56s1.68-6.48-.08-9.27-11.06-2.89-17.42.17-19.55,16.55-19.55,16.55L221,267.48l-20.73,15.23c-1.42-1.4,17.28-30.21,19.37-33.87s8.46-12.11,11.43-16.37,4-10,5.64-16.31-.78-11.93-.2-17.39,4.45-13.45,8.5-18S257.34,172,260.78,170s7.25-8.25,14.68-15.67,13.22-12.9,13.22-12.9l10.92-8.25s-1.64,16.46.28,26.59"/></g><g id="circulo_fuera" data-name="circulo fuera"><path class="cls-4" d="M715.54,359.65c0,196.54-159.34,355.88-355.89,355.88S3.77,556.19,3.77,359.65,163.1,3.77,359.65,3.77,715.54,163.1,715.54,359.65Z"/></g><g id="circulo_dentro" data-name="circulo dentro"><path class="cls-4" d="M640.71,359.65c0,155.22-125.84,281.06-281.06,281.06s-281-125.84-281-281.06,125.82-281.06,281-281.06S640.71,204.42,640.71,359.65Z"/></g><g id="sem_circulo_dch" data-name="sem circulo dch"><path class="cls-2" d="M574.49,122.7C705.16,245.8,711.3,451.52,588.21,582.17"/></g><g id="semicirculo_izda" data-name="semicirculo izda"><path class="cls-2" d="M144.46,595.9C13.8,472.78,7.66,267.07,130.76,136.4"/></g><g id="flechas"><polyline class="cls-6" points="100.25 117.65 155.18 110.61 153.3 169.3"/><polyline class="cls-6" points="615.13 607.37 557.27 609.91 557.27 559.46"/></g><g id="sr_fix" data-name="sr fix"><text class="cls-7" transform="translate(274.04 70.61) rotate(-13.42)">S</text><text class="cls-8" transform="translate(306.52 63.27) rotate(-7.26)">R</text><text class="cls-9" transform="matrix(1, -0.04, 0.04, 1, 340.43, 60.03)">.</text><text class="cls-10" transform="matrix(1, 0.05, -0.05, 1, 361.54, 58.59)">F</text><text class="cls-11" transform="translate(391.6 60.8) rotate(7.3)">I</text><text class="cls-12" transform="matrix(0.98, 0.21, -0.21, 0.98, 413.08, 64.4)">X</text></g><g id="ebanista"><text class="cls-8" transform="translate(235.16 667.22) rotate(23.11)">E</text><text class="cls-13" transform="matrix(0.95, 0.3, -0.3, 0.95, 265.4, 680.1)">B</text><text class="cls-14" transform="matrix(0.98, 0.17, -0.17, 0.98, 295.91, 688.48)">A</text><text class="cls-15" transform="translate(336.17 695.41) rotate(0.46)">N</text><text class="cls-16" transform="translate(378.9 694.11) rotate(-6.22)">I</text><text class="cls-17" transform="translate(400.96 692.43) rotate(-11.85)">S</text><text class="cls-10" transform="matrix(0.95, -0.32, 0.32, 0.95, 432.28, 683.78)">T</text><text class="cls-18" transform="matrix(0.9, -0.43, 0.43, 0.9, 458.28, 674.96)">A</text></g></g></svg>